<mxfile host="app.diagrams.net" modified="2023-12-27T10:34:12.489Z" agent="Mozilla/5.0 (Windows NT 10.0; Win64; x64) AppleWebKit/537.36 (KHTML, like Gecko) Chrome/120.0.0.0 Safari/537.36 Edg/120.0.0.0" etag="EDEMRXzEaMvtIv5CSrws" version="22.1.12" type="github">
  <diagram name="第 1 页" id="csWmZY4bXsyXDXxBg6AC">
    <mxGraphModel dx="515" dy="327" grid="1" gridSize="10" guides="1" tooltips="1" connect="1" arrows="1" fold="1" page="1" pageScale="1" pageWidth="827" pageHeight="1169" math="0" shadow="0">
      <root>
        <mxCell id="0" />
        <mxCell id="1" parent="0" />
        <mxCell id="6X2f48gKJWZxlsfF0qSY-3" value="" style="endArrow=none;html=1;rounded=0;" edge="1" parent="1">
          <mxGeometry width="50" height="50" relative="1" as="geometry">
            <mxPoint x="450" y="294.5" as="sourcePoint" />
            <mxPoint x="490" y="295" as="targetPoint" />
            <Array as="points">
              <mxPoint x="490" y="294.5" />
            </Array>
          </mxGeometry>
        </mxCell>
        <mxCell id="6X2f48gKJWZxlsfF0qSY-4" value="登录" style="rhombus;whiteSpace=wrap;html=1;" vertex="1" parent="1">
          <mxGeometry x="490" y="263.75" width="60" height="62.5" as="geometry" />
        </mxCell>
        <mxCell id="6X2f48gKJWZxlsfF0qSY-5" value="购买" style="rhombus;whiteSpace=wrap;html=1;" vertex="1" parent="1">
          <mxGeometry x="230" y="263.75" width="60" height="62.5" as="geometry" />
        </mxCell>
        <mxCell id="6X2f48gKJWZxlsfF0qSY-6" value="" style="endArrow=none;html=1;rounded=0;" edge="1" parent="1">
          <mxGeometry width="50" height="50" relative="1" as="geometry">
            <mxPoint x="550" y="294.5" as="sourcePoint" />
            <mxPoint x="590" y="295" as="targetPoint" />
            <Array as="points" />
          </mxGeometry>
        </mxCell>
        <mxCell id="6X2f48gKJWZxlsfF0qSY-11" value="用户表" style="rounded=0;whiteSpace=wrap;html=1;" vertex="1" parent="1">
          <mxGeometry x="590" y="275" width="70" height="40" as="geometry" />
        </mxCell>
        <mxCell id="6X2f48gKJWZxlsfF0qSY-12" value="评价表" style="rounded=0;whiteSpace=wrap;html=1;" vertex="1" parent="1">
          <mxGeometry x="100" y="275" width="70" height="40" as="geometry" />
        </mxCell>
        <mxCell id="6X2f48gKJWZxlsfF0qSY-14" value="" style="endArrow=none;html=1;rounded=0;" edge="1" parent="1">
          <mxGeometry width="50" height="50" relative="1" as="geometry">
            <mxPoint x="170" y="294.5" as="sourcePoint" />
            <mxPoint x="230" y="295" as="targetPoint" />
            <Array as="points" />
          </mxGeometry>
        </mxCell>
        <mxCell id="6X2f48gKJWZxlsfF0qSY-15" value="" style="endArrow=none;html=1;rounded=0;" edge="1" parent="1" source="6X2f48gKJWZxlsfF0qSY-1">
          <mxGeometry width="50" height="50" relative="1" as="geometry">
            <mxPoint x="310" y="314.5" as="sourcePoint" />
            <mxPoint x="370" y="315" as="targetPoint" />
            <Array as="points" />
          </mxGeometry>
        </mxCell>
        <mxCell id="6X2f48gKJWZxlsfF0qSY-16" value="" style="endArrow=none;html=1;rounded=0;exitX=1;exitY=0.5;exitDx=0;exitDy=0;" edge="1" parent="1" source="6X2f48gKJWZxlsfF0qSY-5" target="6X2f48gKJWZxlsfF0qSY-1">
          <mxGeometry width="50" height="50" relative="1" as="geometry">
            <mxPoint x="310" y="314.5" as="sourcePoint" />
            <mxPoint x="370" y="315" as="targetPoint" />
            <Array as="points" />
          </mxGeometry>
        </mxCell>
        <mxCell id="6X2f48gKJWZxlsfF0qSY-1" value="车辆列表" style="rounded=0;whiteSpace=wrap;html=1;" vertex="1" parent="1">
          <mxGeometry x="350" y="270" width="100" height="50" as="geometry" />
        </mxCell>
        <mxCell id="6X2f48gKJWZxlsfF0qSY-17" value="" style="endArrow=none;html=1;rounded=0;" edge="1" parent="1">
          <mxGeometry width="50" height="50" relative="1" as="geometry">
            <mxPoint x="400" y="360" as="sourcePoint" />
            <mxPoint x="399.5" y="320" as="targetPoint" />
            <Array as="points" />
          </mxGeometry>
        </mxCell>
        <mxCell id="6X2f48gKJWZxlsfF0qSY-18" value="预约" style="rhombus;whiteSpace=wrap;html=1;" vertex="1" parent="1">
          <mxGeometry x="370" y="360" width="60" height="62.5" as="geometry" />
        </mxCell>
        <mxCell id="6X2f48gKJWZxlsfF0qSY-19" value="试驾表" style="rounded=0;whiteSpace=wrap;html=1;" vertex="1" parent="1">
          <mxGeometry x="365" y="460" width="70" height="40" as="geometry" />
        </mxCell>
        <mxCell id="6X2f48gKJWZxlsfF0qSY-21" value="" style="endArrow=none;html=1;rounded=0;entryX=0.5;entryY=0;entryDx=0;entryDy=0;exitX=0.5;exitY=1;exitDx=0;exitDy=0;" edge="1" parent="1" source="6X2f48gKJWZxlsfF0qSY-18" target="6X2f48gKJWZxlsfF0qSY-19">
          <mxGeometry width="50" height="50" relative="1" as="geometry">
            <mxPoint x="430" y="422.5" as="sourcePoint" />
            <mxPoint x="470" y="423" as="targetPoint" />
            <Array as="points" />
          </mxGeometry>
        </mxCell>
        <mxCell id="6X2f48gKJWZxlsfF0qSY-23" value="&lt;font style=&quot;font-size: 11px;&quot;&gt;车辆名称&lt;/font&gt;" style="ellipse;whiteSpace=wrap;html=1;" vertex="1" parent="1">
          <mxGeometry x="290" y="90" width="50" height="30" as="geometry" />
        </mxCell>
        <mxCell id="6X2f48gKJWZxlsfF0qSY-24" value="&lt;font style=&quot;font-size: 11px;&quot;&gt;车型&lt;/font&gt;" style="ellipse;whiteSpace=wrap;html=1;" vertex="1" parent="1">
          <mxGeometry x="465" y="90" width="50" height="30" as="geometry" />
        </mxCell>
        <mxCell id="6X2f48gKJWZxlsfF0qSY-26" value="&lt;font style=&quot;font-size: 11px;&quot;&gt;变速器&lt;/font&gt;" style="ellipse;whiteSpace=wrap;html=1;" vertex="1" parent="1">
          <mxGeometry x="495" y="120" width="50" height="30" as="geometry" />
        </mxCell>
        <mxCell id="6X2f48gKJWZxlsfF0qSY-27" value="&lt;font style=&quot;font-size: 11px;&quot;&gt;品牌&lt;/font&gt;" style="ellipse;whiteSpace=wrap;html=1;" vertex="1" parent="1">
          <mxGeometry x="400" y="60" width="50" height="30" as="geometry" />
        </mxCell>
        <mxCell id="6X2f48gKJWZxlsfF0qSY-28" value="&lt;font style=&quot;font-size: 11px;&quot;&gt;价格&lt;/font&gt;" style="ellipse;whiteSpace=wrap;html=1;" vertex="1" parent="1">
          <mxGeometry x="345" y="60" width="51" height="30" as="geometry" />
        </mxCell>
        <mxCell id="6X2f48gKJWZxlsfF0qSY-29" value="&lt;font style=&quot;font-size: 11px;&quot;&gt;能源&lt;/font&gt;" style="ellipse;whiteSpace=wrap;html=1;" vertex="1" parent="1">
          <mxGeometry x="535" y="160" width="50" height="30" as="geometry" />
        </mxCell>
        <mxCell id="6X2f48gKJWZxlsfF0qSY-30" value="用户id" style="ellipse;whiteSpace=wrap;html=1;" vertex="1" parent="1">
          <mxGeometry x="215" y="160" width="50" height="30" as="geometry" />
        </mxCell>
        <mxCell id="6X2f48gKJWZxlsfF0qSY-31" value="&lt;font style=&quot;font-size: 11px;&quot;&gt;驱动方式&lt;/font&gt;" style="ellipse;whiteSpace=wrap;html=1;" vertex="1" parent="1">
          <mxGeometry x="245" y="120" width="50" height="30" as="geometry" />
        </mxCell>
        <mxCell id="6X2f48gKJWZxlsfF0qSY-35" value="" style="endArrow=classic;html=1;rounded=0;exitX=0.5;exitY=0;exitDx=0;exitDy=0;" edge="1" parent="1" source="6X2f48gKJWZxlsfF0qSY-1">
          <mxGeometry width="50" height="50" relative="1" as="geometry">
            <mxPoint x="396" y="260" as="sourcePoint" />
            <mxPoint x="370" y="90" as="targetPoint" />
          </mxGeometry>
        </mxCell>
        <mxCell id="6X2f48gKJWZxlsfF0qSY-36" value="" style="endArrow=classic;html=1;rounded=0;entryX=0.5;entryY=1;entryDx=0;entryDy=0;" edge="1" parent="1" target="6X2f48gKJWZxlsfF0qSY-27">
          <mxGeometry width="50" height="50" relative="1" as="geometry">
            <mxPoint x="400" y="270" as="sourcePoint" />
            <mxPoint x="430" y="160" as="targetPoint" />
          </mxGeometry>
        </mxCell>
        <mxCell id="6X2f48gKJWZxlsfF0qSY-37" value="" style="endArrow=classic;html=1;rounded=0;exitX=0.5;exitY=0;exitDx=0;exitDy=0;entryX=0;entryY=1;entryDx=0;entryDy=0;" edge="1" parent="1" source="6X2f48gKJWZxlsfF0qSY-1" target="6X2f48gKJWZxlsfF0qSY-24">
          <mxGeometry width="50" height="50" relative="1" as="geometry">
            <mxPoint x="380" y="210" as="sourcePoint" />
            <mxPoint x="430" y="160" as="targetPoint" />
            <Array as="points" />
          </mxGeometry>
        </mxCell>
        <mxCell id="6X2f48gKJWZxlsfF0qSY-38" value="" style="endArrow=classic;html=1;rounded=0;exitX=0.5;exitY=0;exitDx=0;exitDy=0;" edge="1" parent="1" source="6X2f48gKJWZxlsfF0qSY-1">
          <mxGeometry width="50" height="50" relative="1" as="geometry">
            <mxPoint x="460" y="200" as="sourcePoint" />
            <mxPoint x="510" y="150" as="targetPoint" />
          </mxGeometry>
        </mxCell>
        <mxCell id="6X2f48gKJWZxlsfF0qSY-39" value="" style="endArrow=classic;html=1;rounded=0;exitX=0.5;exitY=0;exitDx=0;exitDy=0;entryX=0;entryY=1;entryDx=0;entryDy=0;" edge="1" parent="1" source="6X2f48gKJWZxlsfF0qSY-1" target="6X2f48gKJWZxlsfF0qSY-29">
          <mxGeometry width="50" height="50" relative="1" as="geometry">
            <mxPoint x="380" y="210" as="sourcePoint" />
            <mxPoint x="430" y="160" as="targetPoint" />
            <Array as="points" />
          </mxGeometry>
        </mxCell>
        <mxCell id="6X2f48gKJWZxlsfF0qSY-40" value="" style="endArrow=classic;html=1;rounded=0;entryX=1;entryY=1;entryDx=0;entryDy=0;" edge="1" parent="1" target="6X2f48gKJWZxlsfF0qSY-31">
          <mxGeometry width="50" height="50" relative="1" as="geometry">
            <mxPoint x="400" y="270" as="sourcePoint" />
            <mxPoint x="290" y="160" as="targetPoint" />
            <Array as="points" />
          </mxGeometry>
        </mxCell>
        <mxCell id="6X2f48gKJWZxlsfF0qSY-41" value="" style="endArrow=classic;html=1;rounded=0;entryX=1;entryY=1;entryDx=0;entryDy=0;exitX=0.5;exitY=0;exitDx=0;exitDy=0;" edge="1" parent="1" source="6X2f48gKJWZxlsfF0qSY-1" target="6X2f48gKJWZxlsfF0qSY-30">
          <mxGeometry width="50" height="50" relative="1" as="geometry">
            <mxPoint x="380" y="210" as="sourcePoint" />
            <mxPoint x="430" y="160" as="targetPoint" />
          </mxGeometry>
        </mxCell>
        <mxCell id="6X2f48gKJWZxlsfF0qSY-42" value="" style="endArrow=classic;html=1;rounded=0;entryX=0.721;entryY=0.956;entryDx=0;entryDy=0;entryPerimeter=0;" edge="1" parent="1" target="6X2f48gKJWZxlsfF0qSY-23">
          <mxGeometry width="50" height="50" relative="1" as="geometry">
            <mxPoint x="400" y="270" as="sourcePoint" />
            <mxPoint x="430" y="160" as="targetPoint" />
          </mxGeometry>
        </mxCell>
      </root>
    </mxGraphModel>
  </diagram>
</mxfile>
